<svg xmlns="http://www.w3.org/2000/svg" viewBox="0 0 600 375" width="600" height="375" font-family="Inter, Segoe UI, sans-serif">
  <defs><linearGradient id="bg" x1="0" y1="0" x2="0" y2="1"><stop offset="0" stop-color="#072034"/><stop offset="1" stop-color="#051421"/></linearGradient></defs>
  <rect width="600" height="375" fill="url(#bg)"/>
  <rect x="0" y="0" width="8" height="375" fill="#f2c811"/>
  <text x="30" y="50" font-size="28" font-weight="800" letter-spacing="0.5"><tspan fill="#f2c811">PI</tspan><tspan fill="#8499ab">Forge</tspan></text>
  <!-- the product in one glyph: accounts -> identities -> resources, and one route that is a Deny
       (dashed) — effective access is what is left after that line is taken into account -->
  <g transform="translate(234,72) scale(5.5)" fill="none" stroke="#f2c811" stroke-width="1.3" stroke-linecap="round" stroke-linejoin="round">
    <rect x="0.8" y="2.6" width="3.4" height="3.4" rx="0.8"/>
    <rect x="0.8" y="10.3" width="3.4" height="3.4" rx="0.8"/>
    <rect x="0.8" y="18" width="3.4" height="3.4" rx="0.8"/>
    <polygon points="12,5 14.1,6.2 14.1,8.6 12,9.8 9.9,8.6 9.9,6.2"/>
    <polygon points="12,14.2 14.1,15.4 14.1,17.8 12,19 9.9,17.8 9.9,15.4"/>
    <rect x="19.8" y="2.6" width="3.4" height="3.4" rx="0.8" fill="#f2c811" fill-opacity="0.22"/>
    <rect x="19.8" y="10.3" width="3.4" height="3.4" rx="0.8" fill="#f2c811" fill-opacity="0.22"/>
    <rect x="19.8" y="18" width="3.4" height="3.4" rx="0.8" fill="#f2c811" fill-opacity="0.22"/>
    <path d="M4.2 4.3 L9.9 6.9"/>
    <path d="M4.2 12 L9.9 8"/>
    <path d="M4.2 12 L9.9 16" opacity="0.55"/>
    <path d="M4.2 19.7 L9.9 17.2"/>
    <path d="M14.1 6.9 L19.8 4.3"/>
    <path d="M14.1 8 L19.8 12"/>
    <path d="M14.1 16 L19.8 12.6" opacity="0.6" stroke-dasharray="1.3 1.1"/>
    <path d="M14.1 17.2 L19.8 19.7"/>
  </g>
  <text x="30" y="296" font-size="52" font-weight="800" fill="#ffffff" letter-spacing="-0.5">Access Map</text>
  <text x="30" y="338" font-size="28" font-weight="500" fill="#9fb3c4">Who can really reach what in PI</text>
  <rect x="30" y="358" width="52" height="5" rx="2.5" fill="#f2c811"/>
</svg>
