<svg xmlns="http://www.w3.org/2000/svg" viewBox="0 0 600 375" width="600" height="375" font-family="Inter, Segoe UI, sans-serif">
  <defs><linearGradient id="bg" x1="0" y1="0" x2="0" y2="1"><stop offset="0" stop-color="#072034"/><stop offset="1" stop-color="#051421"/></linearGradient></defs>
  <rect width="600" height="375" fill="url(#bg)"/>
  <rect x="0" y="0" width="8" height="375" fill="#06b6d4"/>
  <text x="30" y="50" font-size="28" font-weight="800" letter-spacing="0.5"><tspan fill="#06b6d4">PI</tspan><tspan fill="#8499ab">Forge</tspan></text>
  <g transform="translate(234,72) scale(5.5)" fill="none" stroke="#06b6d4" stroke-width="1.5" stroke-linecap="round" stroke-linejoin="round">
    
    <rect x="3" y="5" width="2.5" height="6" rx="0.6" fill="#06b6d4" stroke="none"/>
    <rect x="3" y="14" width="2.5" height="5" rx="0.6" fill="#06b6d4" stroke="none" opacity="0.7"/>
    <rect x="18.5" y="4" width="2.5" height="8" rx="0.6" fill="#06b6d4" stroke="none"/>
    <rect x="18.5" y="15" width="2.5" height="4" rx="0.6" fill="#06b6d4" stroke="none" opacity="0.7"/>
    <path d="M5.5 6 C12 6 12 6.5 18.5 6.5" stroke-width="2.6" opacity="0.8"/>
    <path d="M5.5 9.5 C12 9.5 12 10 18.5 10" stroke-width="1.6" opacity="0.55"/>
    <path d="M5.5 16.5 C12 16.5 12 17 18.5 17" stroke-width="2" opacity="0.65"/>
  </g>
  <text x="30" y="296" font-size="52" font-weight="800" fill="#ffffff" letter-spacing="-0.5">Sankey</text>
  <text x="30" y="338" font-size="28" font-weight="500" fill="#9fb3c4">Interactive flow diagrams for PI Vision</text>
  <rect x="30" y="358" width="52" height="5" rx="2.5" fill="#06b6d4"/>
</svg>