<svg xmlns="http://www.w3.org/2000/svg" viewBox="0 0 600 375" width="600" height="375" font-family="Inter, Segoe UI, sans-serif">
  <defs><linearGradient id="bg" x1="0" y1="0" x2="0" y2="1"><stop offset="0" stop-color="#072034"/><stop offset="1" stop-color="#051421"/></linearGradient></defs>
  <rect width="600" height="375" fill="url(#bg)"/>
  <rect x="0" y="0" width="8" height="375" fill="#a855f7"/>
  <text x="30" y="50" font-size="28" font-weight="800" letter-spacing="0.5"><tspan fill="#a855f7">PI</tspan><tspan fill="#8499ab">Forge</tspan></text>
  <g transform="translate(234,72) scale(5.5)" fill="none" stroke="#a855f7" stroke-width="1.5" stroke-linecap="round" stroke-linejoin="round">
    <rect x="4.2" y="14.5" width="2.2" height="5" rx="0.5" fill="#a855f7" stroke="none" opacity="0.55"/>
    <rect x="7.0" y="11.0" width="2.2" height="8.5" rx="0.5" fill="#a855f7" stroke="none" opacity="0.8"/>
    <rect x="9.8" y="7.6" width="2.2" height="11.9" rx="0.5" fill="#a855f7" stroke="none"/>
    <rect x="12.6" y="9.8" width="2.2" height="9.7" rx="0.5" fill="#a855f7" stroke="none" opacity="0.8"/>
    <rect x="15.4" y="13.2" width="2.2" height="6.3" rx="0.5" fill="#a855f7" stroke="none" opacity="0.55"/>
    <path d="M3.4,19 C6,19 6.6,7.2 10.9,7.2 C15.2,7.2 15.8,19 18.4,19" stroke-width="1.3" opacity="0.85"/>
    <line x1="3.2" y1="5.2" x2="3.2" y2="20.2" stroke-width="1.2" stroke-dasharray="2.2 1.8"/>
    <line x1="18.8" y1="5.2" x2="18.8" y2="20.2" stroke-width="1.2" stroke-dasharray="2.2 1.8"/>
    <line x1="3" y1="20.4" x2="21" y2="20.4" stroke-width="1"/>
  </g>
  <text x="30" y="296" font-size="52" font-weight="800" fill="#ffffff" letter-spacing="-0.5">Histogram</text>
  <text x="30" y="338" font-size="28" font-weight="500" fill="#9fb3c4">Cp / Cpk with a reality check</text>
  <rect x="30" y="358" width="52" height="5" rx="2.5" fill="#a855f7"/>
</svg>
